<svg width="86" height="30" viewBox="0 0 86 30" fill="none" xmlns="http://www.w3.org/2000/svg">
<path d="M0 4.5C0 2.01472 2.01472 0 4.5 0H25.5C27.9853 0 30 2.01472 30 4.5V25.5C30 27.9853 27.9853 30 25.5 30H4.5C2.01472 30 0 27.9853 0 25.5V4.5Z" fill="white"/>
<path d="M9.02875 12.6504V22.5H6.64795V12.6504H9.02875ZM9.35515 9.77998C9.35515 9.98478 9.31355 10.1768 9.23035 10.356C9.14715 10.5352 9.03515 10.692 8.89435 10.8264C8.75995 10.9608 8.59995 11.0696 8.41435 11.1528C8.22875 11.2296 8.03035 11.268 7.81915 11.268C7.61435 11.268 7.41915 11.2296 7.23355 11.1528C7.05435 11.0696 6.89755 10.9608 6.76315 10.8264C6.62875 10.692 6.51995 10.5352 6.43675 10.356C6.35995 10.1768 6.32155 9.98478 6.32155 9.77998C6.32155 9.56878 6.35995 9.37038 6.43675 9.18478C6.51995 8.99918 6.62875 8.83918 6.76315 8.70478C6.89755 8.57038 7.05435 8.46478 7.23355 8.38798C7.41915 8.30478 7.61435 8.26318 7.81915 8.26318C8.03035 8.26318 8.22875 8.30478 8.41435 8.38798C8.59995 8.46478 8.75995 8.57038 8.89435 8.70478C9.03515 8.83918 9.14715 8.99918 9.23035 9.18478C9.31355 9.37038 9.35515 9.56878 9.35515 9.77998Z" fill="#0055D4"/>
<path d="M24.0157 15.5592C24.0157 16.5768 23.8461 17.5112 23.5069 18.3624C23.1677 19.2136 22.6909 19.9464 22.0765 20.5608C21.4621 21.1752 20.7229 21.652 19.8589 21.9912C18.9949 22.3304 18.0349 22.5 16.9789 22.5H11.6893V8.61838H16.9789C18.0349 8.61838 18.9949 8.79118 19.8589 9.13678C20.7229 9.47598 21.4621 9.95278 22.0765 10.5672C22.6909 11.1752 23.1677 11.9048 23.5069 12.756C23.8461 13.6072 24.0157 14.5416 24.0157 15.5592ZM21.3661 15.5592C21.3661 14.7976 21.2637 14.116 21.0589 13.5144C20.8605 12.9064 20.5693 12.3944 20.1853 11.9784C19.8077 11.556 19.3469 11.2328 18.8029 11.0088C18.2653 10.7848 17.6573 10.6728 16.9789 10.6728H14.2813V20.4456H16.9789C17.6573 20.4456 18.2653 20.3336 18.8029 20.1096C19.3469 19.8856 19.8077 19.5656 20.1853 19.1496C20.5693 18.7272 20.8605 18.2152 21.0589 17.6136C21.2637 17.0056 21.3661 16.3208 21.3661 15.5592Z" fill="#0055D4"/>
<path d="M41.4062 12.7752V22.5H39.6974V12.7752H41.4062ZM41.771 9.72239C41.771 9.88879 41.7358 10.0456 41.6654 10.1928C41.6014 10.3336 41.5118 10.4616 41.3966 10.5768C41.2878 10.6856 41.1566 10.772 41.003 10.836C40.8558 10.9 40.699 10.932 40.5326 10.932C40.3662 10.932 40.2094 10.9 40.0622 10.836C39.9214 10.772 39.7966 10.6856 39.6878 10.5768C39.579 10.4616 39.4926 10.3336 39.4286 10.1928C39.3646 10.0456 39.3326 9.88879 39.3326 9.72239C39.3326 9.55599 39.3646 9.39919 39.4286 9.25199C39.4926 9.09839 39.579 8.96719 39.6878 8.85839C39.7966 8.74319 39.9214 8.65359 40.0622 8.58959C40.2094 8.52559 40.3662 8.49359 40.5326 8.49359C40.699 8.49359 40.8558 8.52559 41.003 8.58959C41.1566 8.65359 41.2878 8.74319 41.3966 8.85839C41.5118 8.96719 41.6014 9.09839 41.6654 9.25199C41.7358 9.39919 41.771 9.55599 41.771 9.72239Z" fill="white"/>
<path d="M56.3903 15.6264C56.3903 16.6568 56.2271 17.5944 55.9007 18.4392C55.5743 19.284 55.1135 20.0072 54.5183 20.6088C53.9231 21.2104 53.2063 21.6776 52.3679 22.0104C51.5359 22.3368 50.6143 22.5 49.6031 22.5H44.4671V8.74319H49.6031C50.6143 8.74319 51.5359 8.90959 52.3679 9.24239C53.2063 9.56879 53.9231 10.036 54.5183 10.644C55.1135 11.2456 55.5743 11.9688 55.9007 12.8136C56.2271 13.6584 56.3903 14.596 56.3903 15.6264ZM54.4799 15.6264C54.4799 14.7816 54.3647 14.0264 54.1343 13.3608C53.9039 12.6952 53.5775 12.132 53.1551 11.6712C52.7327 11.2104 52.2207 10.8584 51.6191 10.6152C51.0175 10.372 50.3455 10.2504 49.6031 10.2504H46.3295V20.9928H49.6031C50.3455 20.9928 51.0175 20.8712 51.6191 20.628C52.2207 20.3848 52.7327 20.036 53.1551 19.5816C53.5775 19.1208 53.9039 18.5576 54.1343 17.892C54.3647 17.2264 54.4799 16.4712 54.4799 15.6264Z" fill="white"/>
<path d="M65.0477 16.5768C65.0477 16.18 64.9901 15.8184 64.8749 15.492C64.7661 15.1592 64.6029 14.8744 64.3853 14.6376C64.1741 14.3944 63.9149 14.2088 63.6077 14.0808C63.3005 13.9464 62.9517 13.8792 62.5613 13.8792C61.7421 13.8792 61.0925 14.1192 60.6125 14.5992C60.1389 15.0728 59.8445 15.732 59.7293 16.5768H65.0477ZM66.4301 21.1368C66.2189 21.3928 65.9661 21.6168 65.6717 21.8088C65.3773 21.9944 65.0605 22.148 64.7213 22.2696C64.3885 22.3912 64.0429 22.4808 63.6845 22.5384C63.3261 22.6024 62.9709 22.6344 62.6189 22.6344C61.9469 22.6344 61.3261 22.5224 60.7565 22.2984C60.1933 22.068 59.7037 21.7352 59.2877 21.3C58.8781 20.8584 58.5581 20.3144 58.3277 19.668C58.0973 19.0216 57.9821 18.2792 57.9821 17.4408C57.9821 16.7624 58.0845 16.1288 58.2893 15.54C58.5005 14.9512 58.8013 14.4424 59.1917 14.0136C59.5821 13.5784 60.0589 13.2392 60.6221 12.996C61.1853 12.7464 61.8189 12.6216 62.5229 12.6216C63.1053 12.6216 63.6429 12.7208 64.1357 12.9192C64.6349 13.1112 65.0637 13.3928 65.4221 13.764C65.7869 14.1288 66.0717 14.5832 66.2765 15.1272C66.4813 15.6648 66.5837 16.2792 66.5837 16.9704C66.5837 17.2392 66.5549 17.4184 66.4973 17.508C66.4397 17.5976 66.3309 17.6424 66.1709 17.6424H59.6717C59.6909 18.2568 59.7741 18.7912 59.9213 19.2456C60.0749 19.7 60.2861 20.0808 60.5549 20.388C60.8237 20.6888 61.1437 20.916 61.5149 21.0696C61.8861 21.2168 62.3021 21.2904 62.7629 21.2904C63.1917 21.2904 63.5597 21.2424 63.8669 21.1464C64.1805 21.044 64.4493 20.9352 64.6733 20.82C64.8973 20.7048 65.0829 20.5992 65.2301 20.5032C65.3837 20.4008 65.5149 20.3496 65.6237 20.3496C65.7645 20.3496 65.8733 20.404 65.9501 20.5128L66.4301 21.1368Z" fill="white"/>
<path d="M74.3466 14.3784C74.2698 14.5192 74.1514 14.5896 73.9914 14.5896C73.8954 14.5896 73.7866 14.5544 73.665 14.484C73.5434 14.4136 73.393 14.3368 73.2138 14.2536C73.041 14.164 72.833 14.084 72.5898 14.0136C72.3466 13.9368 72.0586 13.8984 71.7258 13.8984C71.4378 13.8984 71.1786 13.9368 70.9482 14.0136C70.7178 14.084 70.5194 14.1832 70.353 14.3112C70.193 14.4392 70.0682 14.5896 69.9786 14.7624C69.8954 14.9288 69.8538 15.1112 69.8538 15.3096C69.8538 15.5592 69.9242 15.7672 70.065 15.9336C70.2122 16.1 70.4042 16.244 70.641 16.3656C70.8778 16.4872 71.1466 16.596 71.4474 16.692C71.7482 16.7816 72.0554 16.8808 72.369 16.9896C72.689 17.092 72.9994 17.2072 73.3002 17.3352C73.601 17.4632 73.8698 17.6232 74.1066 17.8152C74.3434 18.0072 74.5322 18.244 74.673 18.5256C74.8202 18.8008 74.8938 19.1336 74.8938 19.524C74.8938 19.972 74.8138 20.388 74.6538 20.772C74.4938 21.1496 74.257 21.4792 73.9434 21.7608C73.6298 22.036 73.2458 22.2536 72.7914 22.4136C72.337 22.5736 71.8122 22.6536 71.217 22.6536C70.5386 22.6536 69.9242 22.5448 69.3738 22.3272C68.8234 22.1032 68.3562 21.8184 67.9722 21.4728L68.3754 20.82C68.4266 20.7368 68.4874 20.6728 68.5578 20.628C68.6282 20.5832 68.7178 20.5608 68.8266 20.5608C68.9418 20.5608 69.0634 20.6056 69.1914 20.6952C69.3194 20.7848 69.473 20.884 69.6522 20.9928C69.8378 21.1016 70.0618 21.2008 70.3242 21.2904C70.5866 21.38 70.913 21.4248 71.3034 21.4248C71.6362 21.4248 71.9274 21.3832 72.177 21.3C72.4266 21.2104 72.6346 21.092 72.801 20.9448C72.9674 20.7976 73.089 20.628 73.1658 20.436C73.249 20.244 73.2906 20.0392 73.2906 19.8216C73.2906 19.5528 73.217 19.332 73.0698 19.1592C72.929 18.98 72.7402 18.8296 72.5034 18.708C72.2666 18.58 71.9946 18.4712 71.6874 18.3816C71.3866 18.2856 71.0762 18.1864 70.7562 18.084C70.4426 17.9816 70.1322 17.8664 69.825 17.7384C69.5242 17.604 69.2554 17.4376 69.0186 17.2392C68.7818 17.0408 68.5898 16.7976 68.4426 16.5096C68.3018 16.2152 68.2314 15.86 68.2314 15.444C68.2314 15.0728 68.3082 14.7176 68.4618 14.3784C68.6154 14.0328 68.8394 13.732 69.1338 13.476C69.4282 13.2136 69.7898 13.0056 70.2186 12.852C70.6474 12.6984 71.137 12.6216 71.6874 12.6216C72.3274 12.6216 72.9002 12.724 73.4058 12.9288C73.9178 13.1272 74.3594 13.4024 74.7306 13.7544L74.3466 14.3784Z" fill="white"/>
<path d="M78.7073 8.35919V16.6824H79.1489C79.2769 16.6824 79.3825 16.6664 79.4657 16.6344C79.5553 16.596 79.6481 16.5224 79.7441 16.4136L82.8161 13.1208C82.9057 13.012 82.9985 12.9288 83.0945 12.8712C83.1969 12.8072 83.3313 12.7752 83.4977 12.7752H85.0433L81.4625 16.5864C81.2897 16.804 81.1041 16.9736 80.9057 17.0952C81.0209 17.172 81.1233 17.2616 81.2129 17.364C81.3089 17.46 81.3985 17.572 81.4817 17.7L85.2833 22.5H83.7569C83.6097 22.5 83.4817 22.4776 83.3729 22.4328C83.2705 22.3816 83.1809 22.292 83.1041 22.164L79.9073 18.18C79.8113 18.0456 79.7153 17.9592 79.6193 17.9208C79.5297 17.876 79.3889 17.8536 79.1969 17.8536H78.7073V22.5H76.9889V8.35919H78.7073Z" fill="white"/>
</svg>
