<svg width="143" height="50" viewBox="0 0 143 50" fill="none" xmlns="http://www.w3.org/2000/svg">
<path d="M0 7.5C0 3.35786 3.35786 0 7.5 0H42.5C46.6421 0 50 3.35786 50 7.5V42.5C50 46.6421 46.6421 50 42.5 50H7.5C3.35786 50 0 46.6421 0 42.5V7.5Z" fill="url(#paint0_linear_57_1410)"/>
<path d="M15.0479 21.084V37.5H11.0799V21.084H15.0479ZM15.5919 16.3C15.5919 16.6413 15.5226 16.9613 15.3839 17.26C15.2453 17.5586 15.0586 17.82 14.8239 18.044C14.5999 18.268 14.3333 18.4493 14.0239 18.588C13.7146 18.716 13.3839 18.78 13.0319 18.78C12.6906 18.78 12.3653 18.716 12.0559 18.588C11.7573 18.4493 11.4959 18.268 11.2719 18.044C11.0479 17.82 10.8666 17.5586 10.7279 17.26C10.5999 16.9613 10.5359 16.6413 10.5359 16.3C10.5359 15.948 10.5999 15.6173 10.7279 15.308C10.8666 14.9986 11.0479 14.732 11.2719 14.508C11.4959 14.284 11.7573 14.108 12.0559 13.98C12.3653 13.8413 12.6906 13.772 13.0319 13.772C13.3839 13.772 13.7146 13.8413 14.0239 13.98C14.3333 14.108 14.5999 14.284 14.8239 14.508C15.0586 14.732 15.2453 14.9986 15.3839 15.308C15.5226 15.6173 15.5919 15.948 15.5919 16.3Z" fill="white"/>
<path d="M40.0262 25.932C40.0262 27.628 39.7435 29.1853 39.1782 30.604C38.6129 32.0226 37.8182 33.244 36.7942 34.268C35.7702 35.292 34.5382 36.0866 33.0982 36.652C31.6582 37.2173 30.0582 37.5 28.2982 37.5H19.4822V14.364H28.2982C30.0582 14.364 31.6582 14.652 33.0982 15.228C34.5382 15.7933 35.7702 16.588 36.7942 17.612C37.8182 18.6253 38.6129 19.8413 39.1782 21.26C39.7435 22.6786 40.0262 24.236 40.0262 25.932ZM35.6102 25.932C35.6102 24.6626 35.4395 23.5266 35.0982 22.524C34.7675 21.5106 34.2822 20.6573 33.6422 19.964C33.0129 19.26 32.2449 18.7213 31.3382 18.348C30.4422 17.9746 29.4289 17.788 28.2982 17.788H23.8022V34.076H28.2982C29.4289 34.076 30.4422 33.8893 31.3382 33.516C32.2449 33.1426 33.0129 32.6093 33.6422 31.916C34.2822 31.212 34.7675 30.3586 35.0982 29.356C35.4395 28.3426 35.6102 27.2013 35.6102 25.932Z" fill="white"/>
<path d="M69.0103 21.292V37.5H66.1623V21.292H69.0103ZM69.6183 16.204C69.6183 16.4813 69.5597 16.7427 69.4423 16.988C69.3357 17.2227 69.1863 17.436 68.9943 17.628C68.813 17.8093 68.5943 17.9533 68.3383 18.06C68.093 18.1667 67.8317 18.22 67.5543 18.22C67.277 18.22 67.0157 18.1667 66.7703 18.06C66.5357 17.9533 66.3277 17.8093 66.1463 17.628C65.965 17.436 65.821 17.2227 65.7143 16.988C65.6077 16.7427 65.5543 16.4813 65.5543 16.204C65.5543 15.9267 65.6077 15.6653 65.7143 15.42C65.821 15.164 65.965 14.9453 66.1463 14.764C66.3277 14.572 66.5357 14.4227 66.7703 14.316C67.0157 14.2093 67.277 14.156 67.5543 14.156C67.8317 14.156 68.093 14.2093 68.3383 14.316C68.5943 14.4227 68.813 14.572 68.9943 14.764C69.1863 14.9453 69.3357 15.164 69.4423 15.42C69.5597 15.6653 69.6183 15.9267 69.6183 16.204Z" fill="black"/>
<path d="M93.9838 26.044C93.9838 27.7613 93.7118 29.324 93.1678 30.732C92.6238 32.14 91.8558 33.3453 90.8638 34.348C89.8718 35.3507 88.6772 36.1293 87.2798 36.684C85.8932 37.228 84.3572 37.5 82.6718 37.5H74.1118V14.572H82.6718C84.3572 14.572 85.8932 14.8493 87.2798 15.404C88.6772 15.948 89.8718 16.7267 90.8638 17.74C91.8558 18.7427 92.6238 19.948 93.1678 21.356C93.7118 22.764 93.9838 24.3267 93.9838 26.044ZM90.7998 26.044C90.7998 24.636 90.6078 23.3773 90.2238 22.268C89.8398 21.1587 89.2958 20.22 88.5918 19.452C87.8878 18.684 87.0345 18.0973 86.0318 17.692C85.0292 17.2867 83.9092 17.084 82.6718 17.084H77.2158V34.988H82.6718C83.9092 34.988 85.0292 34.7853 86.0318 34.38C87.0345 33.9747 87.8878 33.3933 88.5918 32.636C89.2958 31.868 89.8398 30.9293 90.2238 29.82C90.6078 28.7107 90.7998 27.452 90.7998 26.044Z" fill="black"/>
<path d="M108.413 27.628C108.413 26.9667 108.317 26.364 108.125 25.82C107.943 25.2653 107.671 24.7907 107.309 24.396C106.957 23.9907 106.525 23.6813 106.013 23.468C105.501 23.244 104.919 23.132 104.269 23.132C102.903 23.132 101.821 23.532 101.021 24.332C100.231 25.1213 99.7408 26.22 99.5488 27.628H108.413ZM110.717 35.228C110.365 35.6547 109.943 36.028 109.453 36.348C108.962 36.6573 108.434 36.9133 107.869 37.116C107.314 37.3187 106.738 37.468 106.141 37.564C105.543 37.6707 104.951 37.724 104.365 37.724C103.245 37.724 102.21 37.5373 101.261 37.164C100.322 36.78 99.5062 36.2253 98.8128 35.5C98.1302 34.764 97.5968 33.8573 97.2128 32.78C96.8288 31.7027 96.6368 30.4653 96.6368 29.068C96.6368 27.9373 96.8075 26.8813 97.1488 25.9C97.5008 24.9187 98.0022 24.0707 98.6528 23.356C99.3035 22.6307 100.098 22.0653 101.037 21.66C101.975 21.244 103.031 21.036 104.205 21.036C105.175 21.036 106.071 21.2013 106.893 21.532C107.725 21.852 108.439 22.3213 109.037 22.94C109.645 23.548 110.119 24.3053 110.461 25.212C110.802 26.108 110.973 27.132 110.973 28.284C110.973 28.732 110.925 29.0307 110.829 29.18C110.733 29.3293 110.551 29.404 110.285 29.404H99.4528C99.4848 30.428 99.6235 31.3187 99.8688 32.076C100.125 32.8333 100.477 33.468 100.925 33.98C101.373 34.4813 101.906 34.86 102.525 35.116C103.143 35.3613 103.837 35.484 104.605 35.484C105.319 35.484 105.933 35.404 106.445 35.244C106.967 35.0733 107.415 34.892 107.789 34.7C108.162 34.508 108.471 34.332 108.717 34.172C108.973 34.0013 109.191 33.916 109.373 33.916C109.607 33.916 109.789 34.0067 109.917 34.188L110.717 35.228Z" fill="black"/>
<path d="M123.911 23.964C123.783 24.1987 123.586 24.316 123.319 24.316C123.159 24.316 122.978 24.2573 122.775 24.14C122.572 24.0227 122.322 23.8947 122.023 23.756C121.735 23.6067 121.388 23.4733 120.983 23.356C120.578 23.228 120.098 23.164 119.543 23.164C119.063 23.164 118.631 23.228 118.247 23.356C117.863 23.4733 117.532 23.6387 117.255 23.852C116.988 24.0653 116.78 24.316 116.631 24.604C116.492 24.8813 116.423 25.1853 116.423 25.516C116.423 25.932 116.54 26.2787 116.775 26.556C117.02 26.8333 117.34 27.0733 117.735 27.276C118.13 27.4787 118.578 27.66 119.079 27.82C119.58 27.9693 120.092 28.1347 120.615 28.316C121.148 28.4867 121.666 28.6787 122.167 28.892C122.668 29.1053 123.116 29.372 123.511 29.692C123.906 30.012 124.22 30.4067 124.455 30.876C124.7 31.3347 124.823 31.8893 124.823 32.54C124.823 33.2867 124.69 33.98 124.423 34.62C124.156 35.2493 123.762 35.7987 123.239 36.268C122.716 36.7267 122.076 37.0893 121.319 37.356C120.562 37.6227 119.687 37.756 118.695 37.756C117.564 37.756 116.54 37.5747 115.623 37.212C114.706 36.8387 113.927 36.364 113.287 35.788L113.959 34.7C114.044 34.5613 114.146 34.4547 114.263 34.38C114.38 34.3053 114.53 34.268 114.711 34.268C114.903 34.268 115.106 34.3427 115.319 34.492C115.532 34.6413 115.788 34.8067 116.087 34.988C116.396 35.1693 116.77 35.3347 117.207 35.484C117.644 35.6333 118.188 35.708 118.839 35.708C119.394 35.708 119.879 35.6387 120.295 35.5C120.711 35.3507 121.058 35.1533 121.335 34.908C121.612 34.6627 121.815 34.38 121.943 34.06C122.082 33.74 122.151 33.3987 122.151 33.036C122.151 32.588 122.028 32.22 121.783 31.932C121.548 31.6333 121.234 31.3827 120.839 31.18C120.444 30.9667 119.991 30.7853 119.479 30.636C118.978 30.476 118.46 30.3107 117.927 30.14C117.404 29.9693 116.887 29.7773 116.375 29.564C115.874 29.34 115.426 29.0627 115.031 28.732C114.636 28.4013 114.316 27.996 114.071 27.516C113.836 27.0253 113.719 26.4333 113.719 25.74C113.719 25.1213 113.847 24.5293 114.103 23.964C114.359 23.388 114.732 22.8867 115.223 22.46C115.714 22.0227 116.316 21.676 117.031 21.42C117.746 21.164 118.562 21.036 119.479 21.036C120.546 21.036 121.5 21.2067 122.343 21.548C123.196 21.8787 123.932 22.3373 124.551 22.924L123.911 23.964Z" fill="black"/>
<path d="M131.179 13.932V27.804H131.915C132.128 27.804 132.304 27.7773 132.443 27.724C132.592 27.66 132.747 27.5373 132.907 27.356L138.027 21.868C138.176 21.6867 138.331 21.548 138.491 21.452C138.661 21.3453 138.885 21.292 139.163 21.292H141.739L135.771 27.644C135.483 28.0067 135.173 28.2893 134.843 28.492C135.035 28.62 135.205 28.7693 135.355 28.94C135.515 29.1 135.664 29.2867 135.803 29.5L142.139 37.5H139.595C139.349 37.5 139.136 37.4627 138.955 37.388C138.784 37.3027 138.635 37.1533 138.507 36.94L133.179 30.3C133.019 30.076 132.859 29.932 132.699 29.868C132.549 29.7933 132.315 29.756 131.995 29.756H131.179V37.5H128.315V13.932H131.179Z" fill="black"/>
<defs>
<linearGradient id="paint0_linear_57_1410" x1="0" y1="0" x2="50" y2="50" gradientUnits="userSpaceOnUse">
<stop stop-color="#0055D5"/>
<stop offset="1" stop-color="#AA00AD"/>
</linearGradient>
</defs>
</svg>
